<?xml version="1.0" encoding="utf-8"?>
<!-- Generator: Adobe Illustrator 19.0.0, SVG Export Plug-In . SVG Version: 6.00 Build 0)  -->
<svg version="1.1" id="レイヤー_1" xmlns="http://www.w3.org/2000/svg" xmlns:xlink="http://www.w3.org/1999/xlink" x="0px"
	 y="0px" viewBox="0 0 263 246.9" style="enable-background:new 0 0 263 246.9;" xml:space="preserve">
<style type="text/css">
	.st0{fill:#6EC7EA;}
	.st1{fill:#FFFFFF;}
	.st2{fill:#6EC7EA;stroke:#FFFFFF;stroke-width:1.7429;stroke-miterlimit:10;}
</style>
<circle id="XMLID_6_" class="st0" cx="131.8" cy="123.3" r="112.7"/>
<g id="XMLID_1_">
	<rect id="XMLID_2_" x="64.4" y="52.7" class="st1" width="134.2" height="141.5"/>
	<rect id="XMLID_3_" x="64.4" y="52.7" class="st2" width="134.2" height="9.3"/>
	<rect id="XMLID_4_" x="73" y="71" class="st0" width="116.9" height="53.5"/>
	<g id="XMLID_5_">
		<g id="XMLID_7_">
			<circle id="XMLID_8_" class="st0" cx="87.5" cy="134" r="2.9"/>
			<circle id="XMLID_9_" class="st0" cx="102.3" cy="134" r="2.9"/>
			<circle id="XMLID_10_" class="st0" cx="117.1" cy="134" r="2.9"/>
			<circle id="XMLID_11_" class="st0" cx="131.8" cy="134" r="2.9"/>
			<circle id="XMLID_12_" class="st0" cx="146.6" cy="134" r="2.9"/>
			<circle id="XMLID_13_" class="st0" cx="161.3" cy="134" r="2.9"/>
			<circle id="XMLID_14_" class="st0" cx="176.1" cy="134" r="2.9"/>
		</g>
		<g id="XMLID_15_">
			<circle id="XMLID_22_" class="st0" cx="87.5" cy="146.3" r="2.9"/>
			<circle id="XMLID_21_" class="st0" cx="102.3" cy="146.3" r="2.9"/>
			<circle id="XMLID_20_" class="st0" cx="117.1" cy="146.3" r="2.9"/>
			<circle id="XMLID_19_" class="st0" cx="131.8" cy="146.3" r="2.9"/>
			<circle id="XMLID_18_" class="st0" cx="146.6" cy="146.3" r="2.9"/>
			<circle id="XMLID_17_" class="st0" cx="161.3" cy="146.3" r="2.9"/>
			<circle id="XMLID_16_" class="st0" cx="176.1" cy="146.3" r="2.9"/>
		</g>
		<g id="XMLID_23_">
			<circle id="XMLID_30_" class="st0" cx="87.5" cy="158.6" r="2.9"/>
			<circle id="XMLID_29_" class="st0" cx="102.3" cy="158.6" r="2.9"/>
			<circle id="XMLID_28_" class="st0" cx="117.1" cy="158.6" r="2.9"/>
			<circle id="XMLID_27_" class="st0" cx="131.8" cy="158.6" r="2.9"/>
			<circle id="XMLID_26_" class="st0" cx="146.6" cy="158.6" r="2.9"/>
			<circle id="XMLID_25_" class="st0" cx="161.3" cy="158.6" r="2.9"/>
			<circle id="XMLID_24_" class="st0" cx="176.1" cy="158.6" r="2.9"/>
		</g>
		<g id="XMLID_31_">
			<circle id="XMLID_38_" class="st0" cx="87.5" cy="170.9" r="2.9"/>
			<circle id="XMLID_37_" class="st0" cx="102.3" cy="170.9" r="2.9"/>
			<circle id="XMLID_36_" class="st0" cx="117.1" cy="170.9" r="2.9"/>
			<circle id="XMLID_35_" class="st0" cx="131.8" cy="170.9" r="2.9"/>
			<circle id="XMLID_34_" class="st0" cx="146.6" cy="170.9" r="2.9"/>
			<circle id="XMLID_33_" class="st0" cx="161.3" cy="170.9" r="2.9"/>
			<circle id="XMLID_32_" class="st0" cx="176.1" cy="170.9" r="2.9"/>
		</g>
		<circle id="XMLID_46_" class="st0" cx="87.5" cy="183.2" r="2.9"/>
		<circle id="XMLID_45_" class="st0" cx="102.3" cy="183.2" r="2.9"/>
		<circle id="XMLID_44_" class="st0" cx="117.1" cy="183.2" r="2.9"/>
	</g>
</g>
</svg>
