<?xml version="1.0" encoding="utf-8"?>
<!-- Generator: Adobe Illustrator 19.1.0, SVG Export Plug-In . SVG Version: 6.00 Build 0)  -->
<svg version="1.1" id="レイヤー_1" xmlns="http://www.w3.org/2000/svg" xmlns:xlink="http://www.w3.org/1999/xlink" x="0px"
	 y="0px" viewBox="-370 235.3 100 125" style="enable-background:new -370 235.3 100 125;" xml:space="preserve">
<path d="M-285.5,257.6c0-2.8-2.6-4.9-5.3-4.4l-42.8,8.7c-2.1,0.4-3.6,2.3-3.6,4.4v1.6v5.6v43.4c0,0,0.4,4.5-5.4,4.5
	c-5.8,0-6.8,0-6.8,0c-5.7,0-10.4,4.7-10.4,10.4c0,5.7,4.7,10.4,10.4,10.4c0.1,0,0.7,0,6.1,0c6.7,0,11.3-3.8,11.3-11.2
	c0-5.2,0-31.4,0-46.5c0.1-1.1,0.7-3.2,4.1-3.8l33.2-6.7c1.4-0.2,4-0.1,4,3.3v31.3c0,0,0.4,4.5-5.4,4.5c-5.8,0-6.8,0-6.8,0
	c-5.7,0-10.4,4.7-10.4,10.4c0,5.7,4.7,10.4,10.4,10.4c0.1,0,0.7,0,6.1,0c6.7,0,11.3-3.8,11.3-11.2s0-57.2,0-57.2l0,0
	c0-0.1,0-0.3,0-0.4V257.6z"/>
</svg>
