<?xml version="1.0" encoding="utf-8"?>
<!-- Generator: Adobe Illustrator 19.0.0, SVG Export Plug-In . SVG Version: 6.00 Build 0)  -->
<svg version="1.1" id="レイヤー_1" xmlns="http://www.w3.org/2000/svg" xmlns:xlink="http://www.w3.org/1999/xlink" x="0px"
	 y="0px" viewBox="0 0 255.6 253.1" style="enable-background:new 0 0 255.6 253.1;" xml:space="preserve">
<style type="text/css">
	.st0{fill:#6EC7EA;}
	.st1{fill:#FFFFFF;}
</style>
<circle id="XMLID_132_" class="st0" cx="130.1" cy="126.5" r="120.4"/>
<path id="XMLID_190_" class="st1" d="M223.3,154.8c-7.6,7.4-14.7,14.5-21.9,21.2c-0.9,0.8-3.5,0.7-4.7,0
	c-12.5-7.4-24.9-15.1-37.4-22.6c-12.2-7.4-24.4-14.6-36.6-22.1c-1.3-0.8-2.4-2.4-3.1-3.8c-1.8-3.5-3.3-7.2-5.2-10.6
	c-0.5-0.8-2.4-1.1-3.6-1.2c-25.6-2.9-51.3-5.8-76.9-8.7c-2.2-0.2-4.4-0.6-6.5-0.9c0.1-0.6,0.1-1.2,0.2-1.8
	c29.5,2.7,58.9,5.5,89.1,8.3c0.2-1.9,0.5-3.7,0.7-5.5c0.1-0.6,0.1-1.3,0.3-1.7c3.9-6.4,19.7-12,27.3-10.9
	c14.8,2,22.5,11.6,26.7,24.4c3.5,10.8,10.1,17.7,20.4,21.9C202.4,145,212.4,149.9,223.3,154.8z M136,126.3c0.4-0.4,0.7-0.8,1.1-1.2
	c-4.2-3.8-8.4-7.6-12.6-11.5c-0.4,0.5-0.9,1-1.3,1.5C124.4,122.2,131.1,123.2,136,126.3z"/>
</svg>
